<svg width="682" height="205" viewBox="0 0 682 205" fill="none" xmlns="http://www.w3.org/2000/svg">
  <g clip-path="url(#clip0_3221_712)">
    <path d="M292.875 94.7501H275.67V128.299C275.67 129.19 272.071 136.639 270.944 137.622C262.024 145.39 249.083 135.484 249.083 125.177V100.988H233.442V126.738C233.442 138.914 220.471 143.571 210.348 138.853C208.328 137.911 203.723 131.106 203.723 129.859V100.988H188.082V125.177C188.082 139.106 165.648 142.902 157.352 134.764C156.763 134.186 153.667 130.168 153.667 129.859V94.7501H136.462V128.299C136.462 129.55 131.852 136.355 129.837 137.298C121.521 141.174 102.052 137.971 102.052 126.743V94.7551H86.4104V123.627C86.4104 124.113 83.669 131.835 83.1004 132.808C78.3232 140.926 67.5657 138.027 59.8135 138.458C62.1234 119.097 52.564 90.9397 29.3228 91.5123C4.85311 92.1102 -5.92473 122.71 3.24888 142.618C10.1329 157.566 26.551 157.87 41.0551 157.191C33.2319 170.704 19.2608 166.266 6.57919 164.061L3.51794 182.135C27.3734 186.468 52.3609 185.17 58.4733 157.383C71.1346 157.343 79.9376 157.712 88.8269 147.857C90.2839 146.246 90.949 143.322 91.1317 143.135C92.406 141.838 93.5432 146.423 94.9393 147.867C107.479 160.834 132.37 160.788 141.955 144.685C147.006 147.807 149.077 152.412 155.251 154.804C169.511 160.327 184.406 156.983 193.554 144.711C202.032 161.837 230.294 164.811 238.158 146.241C256.678 167.781 289.321 161.432 292.875 131.42C294.225 120.029 291.885 106.404 292.875 94.7501ZM42.6187 138.448C33.5568 137.911 23.9669 141.118 17.5703 133.001C8.28497 121.225 24.7386 102.315 35.8769 112.398C41.6389 117.617 43.1975 131.004 42.6187 138.443V138.448Z" fill="black"/>
    <path d="M422.803 80.0305C427.408 75.4499 457.574 52.2684 456.995 48.9293L444.029 37.1232L388.536 86.3946C388.003 89.2321 396.922 99.1583 399.293 100.248C404.923 102.827 414.594 94.8109 423.428 105.735C439.821 126.013 415.107 147.624 389.861 136.102C369.65 126.875 377.651 123.358 381.261 108.806C385.85 90.3114 390.399 36.8496 373.194 24.7699C362.776 17.4531 350.801 21.2483 345.262 32.3197C332.595 57.6597 342.886 99.513 352.141 124.883C341.515 136.867 325.783 141.24 310.075 139.998V158.741C328.981 158.402 349.049 153.968 362.7 140.165C380.85 154.495 406.893 165.141 428.555 151.313C454.487 134.764 451.578 91.8518 421.138 83.8206C420.565 81.4036 421.514 81.3225 422.809 80.0355L422.803 80.0305ZM364.807 102.543L358.999 82.6146C358.258 68.6348 355.334 52.9322 362.487 40.1381C371.214 59.6358 368.193 82.0674 364.807 102.543Z" fill="black"/>
    <path d="M313.197 127.528H330.417C330.696 96.0979 325.3 64.9562 314.745 35.446L299.013 41.0299C307.115 69.2226 314.06 97.8562 313.192 127.534L313.197 127.528Z" fill="black"/>
    <path d="M167.745 166.529H122.384V182.135H167.745V166.529Z" fill="black"/>
    <path d="M102.057 63.5272H84.8369V79.1488H102.057V63.5272Z" fill="black"/>
  </g>
  <path d="M577.248 10.7643C597.078 8.06328 616.898 5.32592 636.728 2.60217C639.468 22.4174 642.194 42.2372 644.911 62.0525C625.686 61.1809 606.452 60.4046 587.236 59.3877C586.999 58.1802 586.772 56.9681 586.559 55.7606C590.821 51.0621 594.997 46.2684 599.113 41.4428C593.229 38.1244 587.499 34.5381 581.651 31.1561C581.174 30.5296 581.133 29.7125 580.951 28.9771C579.765 22.8986 578.379 16.8564 577.248 10.7643Z" fill="#FF6ECC"/>
  <path d="M516.655 62.4518C526.879 45.2378 537.089 28.0146 547.399 10.8505C558.827 17.6008 570.2 24.4465 581.651 31.156C587.499 34.538 593.229 38.1242 599.113 41.4427C594.996 46.2682 590.821 51.062 586.558 55.7605C578.102 65.5206 569.541 75.1899 561.062 84.9273C559.949 84.2509 558.509 83.9422 557.65 82.9616C556.528 76.8377 555.437 70.7093 554.319 64.5854C547.935 66.9778 541.56 69.3883 535.185 71.7988C528.992 68.7119 522.83 65.5751 516.655 62.4518Z" fill="#2E59F2"/>
  <path d="M535.185 71.7991C541.56 69.3886 547.935 66.9781 554.319 64.5857C555.437 70.7096 556.528 76.838 557.65 82.9619C559.958 95.7408 562.267 108.515 564.593 121.29C563.448 121.803 562.312 122.325 561.185 122.878C555.624 119.86 549.994 116.95 544.486 113.826C542.487 120.363 540.324 126.851 538.207 133.351C531.886 136.148 525.647 139.139 519.313 141.904C512.261 123.196 505.172 104.502 498.116 85.7946C510.462 81.0961 522.826 76.4612 535.185 71.7991Z" fill="#00BD82"/>
  <path d="M544.486 113.826C549.994 116.95 555.623 119.859 561.185 122.878C572.577 128.916 583.896 135.09 595.265 141.177C594.983 142.398 594.683 143.61 594.365 144.818C588.576 147.265 582.814 149.78 577.007 152.181C580.533 157.965 584.473 163.489 588.149 169.177C586.74 175.964 584.85 182.669 583.196 189.406C564.152 183.259 545.109 177.113 526.056 170.993C530.068 158.432 534.131 145.889 538.207 133.351C540.324 126.85 542.487 120.363 544.486 113.826Z" fill="#FFA300"/>
  <path d="M594.365 144.818C606.207 139.734 618.102 134.763 629.917 129.61C640.091 142.712 650.101 155.945 660.202 169.105C643.53 180.186 626.827 191.222 610.137 202.28C602.78 191.262 595.487 180.204 588.149 169.177C584.473 163.489 580.533 157.965 577.007 152.181C582.814 149.78 588.576 147.265 594.365 144.818Z" fill="#FF0D38"/>
  <defs>
    <clipPath id="clip0_3221_712">
      <rect width="457" height="163" fill="white" transform="translate(0 21)"/>
    </clipPath>
  </defs>
</svg>
